:FULLY-SPECIFIED
:FORCE-ALL-JOINTS-BE-3DOF
:DEGREES
985
root 1.11542 15.153 32.4948 5.37809 -4.67268 364.124
lfemur 8.69963 1.76851 5.16666
ltibia 3.49861e-14 0 0
lfoot -30.105 -11.7143 0
ltoes -33.8762 0 0
rfemur -32.9601 -15.4958 -6.26304
rtibia 50.8354 0 0
rfoot -22.6051 4.99797 0
rtoes -41.8972 0 0
lowerback -1.55952 -0.419402 0.711649
upperback -0.71732 -0.562807 -5.90918
thorax 0.0696762 -0.297417 -6.54228
lowerneck -6.66561 1.13655 5.87464
upperneck 1.06765 0.934706 3.32563
head 1.46878 0.569495 0.0806115
lclavicle -1.19271e-15 -1.90833e-14 0
lhumerus -58.3302 -45.1106 114.756
lradius 55.0431 0 0
lwrist 25.17 0 0
lhand 37.2967 24.4826 0
lfingers 7.12502 0 0
lthumb 60.119 38.1373 0
rclavicle -1.19271e-15 -1.90833e-14 0
rhumerus 3.74617 -25.0279 -0.173623
rradius 28.014 0 0
rwrist -11.3028 0 0
rhand -31.4609 -44.6274 0
rfingers 7.12502 0 0
rthumb -4.72817 -794.555 0
986
root 1.1144 15.1509 32.4911 5.35348 -4.67862 4.10529
lfemur 8.74137 1.76305 5.20294
ltibia -0.0432493 0 0
lfoot -30.1102 -11.6715 0.000107508
ltoes -33.9203 0 0
rfemur -32.9675 -15.5178 -6.23492
rtibia 50.8608 -0 0
rfoot -22.6424 5.02545 0.000832027
rtoes -41.8845 0 0
lowerback -1.54637 -0.415635 0.710754
upperback -0.704164 -0.557499 -5.89687
thorax 0.0766457 -0.294323 -6.52838
lowerneck -6.67047 1.1436 5.90699
upperneck 1.0696 0.940814 3.32866
head 1.47043 0.572962 0.0763619
lclavicle -1.00155e-15 -1.98345e-14 -9.25389e-32
lhumerus -58.3242 -45.1433 114.79
lradius 55.0455 -0 0
lwrist 25.1678 0 0
lhand 37.2548 24.4884 -3.35321e-05
lfingers 7.12502 -0 0
lthumb 60.0839 38.1853 0.00104401
rclavicle -1.00155e-15 -1.98345e-14 -9.25389e-32
rhumerus 3.74166 -24.8949 -0.102527
rradius 27.9862 -0 0
rwrist -11.2522 0 0
rhand -31.3574 -44.5335 -0.0045385
rfingers 7.12502 -0 0
rthumb -4.62832 -74.4649 -0.00414224
987
root 1.11368 15.1489 32.4877 5.32831 -4.68303 4.0859
lfemur 8.78273 1.75599 5.23984
ltibia -0.0863441 0 0
lfoot -30.1154 -11.6281 0.00021822
ltoes -33.9649 0 0
rfemur -32.9731 -15.5402 -6.20658
rtibia 50.8853 -0 0
rfoot -22.6791 5.05286 0.00167876
rtoes -41.8722 0 0
lowerback -1.53318 -0.411514 0.709234
upperback -0.690823 -0.551698 -5.88469
thorax 0.0838409 -0.290972 -6.51426
lowerneck -6.67595 1.15032 5.9398
upperneck 1.07231 0.946359 3.33198
head 1.47243 0.576189 0.0721096
lclavicle -8.06683e-16 -2.05735e-14 -1.8757e-31
lhumerus -58.3187 -45.1778 114.824
lradius 55.0488 -0 0
lwrist 25.1656 0 0
lhand 37.2131 24.4949 -6.22258e-05
lfingers 7.12502 -0 0
lthumb 60.049 38.2338 0.00211394
rclavicle -8.06683e-16 -2.05735e-14 -1.8757e-31
rhumerus 3.7361 -24.761 -0.031273
rradius 27.9579 -0 0
rwrist -11.2004 0 0
rhand -31.2534 -44.4377 -0.00921912
rfingers 7.12502 -0 0
rthumb -4.52793 -74.3729 -0.00841589
988
root 1.11324 15.1473 32.4846 5.30266 -4.68588 4.06591
lfemur 8.82356 1.74734 5.27722
ltibia -0.12913 0 0
lfoot -30.1206 -11.5841 0.000331857
ltoes -34.0099 0 0
rfemur -32.9769 -15.5631 -6.17811
rtibia 50.909 -0 0
rfoot -22.7152 5.0801 0.00253658
rtoes -41.8602 0 0
lowerback -1.52 -0.407049 0.707089
upperback -0.677344 -0.545422 -5.87269
thorax 0.0912377 -0.287374 -6.49996
lowerneck -6.68201 1.15669 5.97296
upperneck 1.07576 0.951318 3.33558
head 1.47477 0.579166 0.0678699
lclavicle -6.08794e-16 -2.12976e-14 -2.8475e-31
lhumerus -58.3137 -45.2137 114.859
lradius 55.0529 -0 0
lwrist 25.1636 0 0
lhand 37.1717 24.502 -8.53324e-05
lfingers 7.12502 -0 0
lthumb 60.0143 38.2827 0.00320607
rclavicle -6.08794e-16 -2.12976e-14 -2.8475e-31
rhumerus 3.7295 -24.6266 0.0398829
rradius 27.9293 -0 0
rwrist -11.1475 0 0
rhand -31.1492 -44.3402 -0.0140309
rfingers 7.12502 -0 0
rthumb -4.42734 -74.2792 -0.0128112
989
root 1.11306 15.1458 32.4817 5.27663 -4.68715 4.04538
lfemur 8.86372 1.73712 5.31496
ltibia -0.171452 0 0
lfoot -30.1258 -11.5397 0.000448085
ltoes -34.055 0 0
rfemur -32.9789 -15.5862 -6.14963
rtibia 50.9316 -0 0
rfoot -22.7503 5.10706 0.00340162
rtoes -41.8487 0 0
lowerback -1.50686 -0.402255 0.704322
upperback -0.663773 -0.538689 -5.8609
thorax 0.0988116 -0.283541 -6.48552
lowerneck -6.68866 1.1627 6.00636
upperneck 1.07996 0.955669 3.33946
head 1.47746 0.581878 0.0636579
lclavicle -4.08554e-16 -2.20042e-14 -3.83698e-31
lhumerus -58.3092 -45.2511 114.894
lradius 55.0578 -0 0
lwrist 25.1617 0 0
lhand 37.1308 24.5097 -0.000102177
lfingers 7.12502 -0 0
lthumb 59.9799 38.3316 0.00431628
rclavicle -4.08554e-16 -2.20042e-14 -3.83698e-31
rhumerus 3.72188 -24.4922 0.110684
rradius 27.9005 -0 0
rwrist -11.0936 0 0
rhand -31.0452 -44.2414 -0.0189604
rfingers 7.12502 -0 0
rthumb -4.32692 -74.1842 -0.0173163
990
root 1.11314 15.1446 32.4792 5.2503 -4.68681 4.02436
lfemur 8.90304 1.72534 5.35293
ltibia -0.213157 0 0
lfoot -30.131 -11.4951 0.000566514
ltoes -34.1002 0 0
rfemur -32.979 -15.6095 -6.12124
rtibia 50.9531 -0 0
rfoot -22.7845 5.13365 0.00426977
rtoes -41.8376 0 0
lowerback -1.49382 -0.397143 0.700936
upperback -0.650156 -0.531517 -5.84938
thorax 0.106538 -0.279483 -6.47101
lowerneck -6.69586 1.16831 6.03987
upperneck 1.08489 0.959388 3.34359
head 1.48047 0.584314 0.0594887
lclavicle -2.06639e-16 -2.26906e-14 -4.83996e-31
lhumerus -58.3052 -45.2898 114.93
lradius 55.0635 -0 0
lwrist 25.1599 0 0
lhand 37.0904 24.518 -0.000112165
lfingers 7.12502 -0 0
lthumb 59.9461 38.3806 0.00544002
rclavicle -2.06639e-16 -2.26906e-14 -4.83996e-31
rhumerus 3.71325 -24.3582 0.180876
rradius 27.8715 -0 0
rwrist -11.039 0 0
rhand -30.9417 -44.1416 -0.0239919
rfingers 7.12502 -0 0
rthumb -4.22701 -74.0882 -0.0219167
991
root 1.11345 15.1435 32.4768 5.22375 -4.68484 4.00294
lfemur 8.94139 1.71203 5.39099
ltibia -0.254089 0 0
lfoot -30.1362 -11.4504 0.000686697
ltoes -34.1452 0 0
rfemur -32.9772 -15.633 -6.09302
rtibia 50.9734 -0 0
rfoot -22.8176 5.15977 0.0051367
rtoes -41.8269 0 0
lowerback -1.48093 -0.391727 0.696932
upperback -0.63654 -0.523924 -5.83817
thorax 0.114393 -0.27521 -6.45647
lowerneck -6.70361 1.17349 6.07339
upperneck 1.09056 0.962452 3.34797
head 1.48381 0.58646 0.0553775
lclavicle -3.72216e-18 -2.33539e-14 -5.85189e-31
lhumerus -58.3018 -45.3298 114.965
lradius 55.07 -0 0
lwrist 25.1582 0 0
lhand 37.0508 24.5268 -0.000114791
lfingers 7.12502 -0 0
lthumb 59.9129 38.4293 0.00657232
rclavicle -3.72216e-18 -2.33539e-14 -5.85189e-31
rhumerus 3.70362 -24.2252 0.250205
rradius 27.8426 -0 0
rwrist -10.9839 0 0
rhand -30.8391 -44.0412 -0.0291069
rfingers 7.12502 -0 0
rthumb -4.12798 -73.9915 -0.0265961
992
root 1.11397 15.1427 32.4747 5.19707 -4.68122 3.98117
lfemur 8.9786 1.69719 5.42902
ltibia -0.294095 0 0
lfoot -30.1413 -11.4058 0.000808133
ltoes -34.1899 0 0
rfemur -32.9736 -15.6566 -6.06509
rtibia 50.9924 -0 0
rfoot -22.8494 5.18533 0.00599789
rtoes -41.8169 0 0
lowerback -1.46822 -0.386018 0.692312
upperback -0.622972 -0.515928 -5.82731
thorax 0.122352 -0.270734 -6.44194
lowerneck -6.71189 1.17823 6.1068
upperneck 1.09694 0.964839 3.3526
head 1.48748 0.588304 0.0513395
lclavicle 1.9952e-16 -2.39917e-14 -6.86783e-31
lhumerus -58.299 -45.3708 115.001
lradius 55.0774 -0 0
lwrist 25.1567 0 0
lhand 37.0121 24.5362 -0.000109641
lfingers 7.12502 -0 0
lthumb 59.8805 38.4777 0.0077078
rclavicle 1.9952e-16 -2.39917e-14 -6.86783e-31
rhumerus 3.69299 -24.0937 0.318419
rradius 27.8137 -0 0
rwrist -10.9284 0 0
rhand -30.7377 -43.9404 -0.0342846
rfingers 7.12502 -0 0
rthumb -4.03018 -73.8944 -0.0313353
993
root 1.1147 15.142 32.4728 5.17034 -4.67593 3.95911
lfemur 9.01453 1.68086 5.46689
ltibia -0.333019 0 0
lfoot -30.1464 -11.3614 0.000930264
ltoes -34.2342 0 0
rfemur -32.9679 -15.6801 -6.03754
rtibia 51.01 -0 0
rfoot -22.8798 5.21022 0.00684859
rtoes -41.8074 0 0
lowerback -1.45576 -0.380029 0.68708
upperback -0.609499 -0.507547 -5.81684
thorax 0.130391 -0.266064 -6.42748
lowerneck -6.72068 1.18249 6.13998
upperneck 1.10405 0.966526 3.35745
head 1.49146 0.589832 0.0473897
lclavicle 4.02414e-16 -2.4601e-14 -7.88254e-31
lhumerus -58.2967 -45.4128 115.036
lradius 55.0854 -0 0
lwrist 25.1553 0 0
lhand 36.9744 24.546 -9.64014e-05
lfingers 7.12502 -0 0
lthumb 59.8489 38.5255 0.00884071
rclavicle 4.02414e-16 -2.4601e-14 -7.88254e-31
rhumerus 3.68137 -23.9639 0.385267
rradius 27.7849 -0 0
rwrist -10.8727 0 0
rhand -30.6381 -43.8397 -0.0395017
rfingers 7.12502 -0 0
rthumb -3.93396 -73.7972 -0.0361134
